ModelForces
version=1
nRows=4
nColumns=206
inDegrees=no

This file contains the forces exerted on a model during a simulation.

A force is a generalized force, meaning that it can be either a force (N) or a torque (Nm).

Units are S.I. units (second, meters, Newtons, ...)
Angles are in degrees.

endheader
time	glut_med1_r	glut_med2_r	glut_med3_r	glut_min1_r	glut_min2_r	glut_min3_r	semimem_r	semiten_r	bifemlh_r	bifemsh_r	sar_r	add_long_r	add_brev_r	add_mag1_r	add_mag2_r	add_mag3_r	tfl_r	pect_r	grac_r	glut_max1_r	glut_max2_r	glut_max3_r	iliacus_r	psoas_r	quad_fem_r	gem_r	peri_r	rect_fem_r	vas_med_r	vas_int_r	vas_lat_r	med_gas_r	lat_gas_r	soleus_r	tib_post_r	flex_dig_r	flex_hal_r	tib_ant_r	per_brev_r	per_long_r	per_tert_r	ext_dig_r	ext_hal_r	glut_med1_l	glut_med2_l	glut_med3_l	glut_min1_l	glut_min2_l	glut_min3_l	semimem_l	semiten_l	bifemlh_l	bifemsh_l	sar_l	add_long_l	add_brev_l	add_mag1_l	add_mag2_l	add_mag3_l	tfl_l	pect_l	grac_l	glut_max1_l	glut_max2_l	glut_max3_l	iliacus_l	psoas_l	quad_fem_l	gem_l	peri_l	rect_fem_l	vas_med_l	vas_int_l	vas_lat_l	med_gas_l	lat_gas_l	soleus_l	tib_post_l	flex_dig_l	flex_hal_l	tib_ant_l	per_brev_l	per_long_l	per_tert_l	ext_dig_l	ext_hal_l	ercspn_r	ercspn_l	intobl_r	intobl_l	extobl_r	extobl_l	femur_lat_meniscii_l.femur_lat_l.force.X	femur_lat_meniscii_l.femur_lat_l.force.Y	femur_lat_meniscii_l.femur_lat_l.force.Z	femur_lat_meniscii_l.femur_lat_l.torque.X	femur_lat_meniscii_l.femur_lat_l.torque.Y	femur_lat_meniscii_l.femur_lat_l.torque.Z	femur_lat_meniscii_l.meniscus_lat_l.force.X	femur_lat_meniscii_l.meniscus_lat_l.force.Y	femur_lat_meniscii_l.meniscus_lat_l.force.Z	femur_lat_meniscii_l.meniscus_lat_l.torque.X	femur_lat_meniscii_l.meniscus_lat_l.torque.Y	femur_lat_meniscii_l.meniscus_lat_l.torque.Z	femur_med_meniscii_l.femur_med_l.force.X	femur_med_meniscii_l.femur_med_l.force.Y	femur_med_meniscii_l.femur_med_l.force.Z	femur_med_meniscii_l.femur_med_l.torque.X	femur_med_meniscii_l.femur_med_l.torque.Y	femur_med_meniscii_l.femur_med_l.torque.Z	femur_med_meniscii_l.meniscus_med_l.force.X	femur_med_meniscii_l.meniscus_med_l.force.Y	femur_med_meniscii_l.meniscus_med_l.force.Z	femur_med_meniscii_l.meniscus_med_l.torque.X	femur_med_meniscii_l.meniscus_med_l.torque.Y	femur_med_meniscii_l.meniscus_med_l.torque.Z	femur_lat_meniscii_r.femur_lat_r.force.X	femur_lat_meniscii_r.femur_lat_r.force.Y	femur_lat_meniscii_r.femur_lat_r.force.Z	femur_lat_meniscii_r.femur_lat_r.torque.X	femur_lat_meniscii_r.femur_lat_r.torque.Y	femur_lat_meniscii_r.femur_lat_r.torque.Z	femur_lat_meniscii_r.meniscus_lat_r.force.X	femur_lat_meniscii_r.meniscus_lat_r.force.Y	femur_lat_meniscii_r.meniscus_lat_r.force.Z	femur_lat_meniscii_r.meniscus_lat_r.torque.X	femur_lat_meniscii_r.meniscus_lat_r.torque.Y	femur_lat_meniscii_r.meniscus_lat_r.torque.Z	femur_med_meniscii_r.femur_med_r.force.X	femur_med_meniscii_r.femur_med_r.force.Y	femur_med_meniscii_r.femur_med_r.force.Z	femur_med_meniscii_r.femur_med_r.torque.X	femur_med_meniscii_r.femur_med_r.torque.Y	femur_med_meniscii_r.femur_med_r.torque.Z	femur_med_meniscii_r.meniscus_med_r.force.X	femur_med_meniscii_r.meniscus_med_r.force.Y	femur_med_meniscii_r.meniscus_med_r.force.Z	femur_med_meniscii_r.meniscus_med_r.torque.X	femur_med_meniscii_r.meniscus_med_r.torque.Y	femur_med_meniscii_r.meniscus_med_r.torque.Z	femur_med_tibia_l.tibia_upper_l.force.X	femur_med_tibia_l.tibia_upper_l.force.Y	femur_med_tibia_l.tibia_upper_l.force.Z	femur_med_tibia_l.tibia_upper_l.torque.X	femur_med_tibia_l.tibia_upper_l.torque.Y	femur_med_tibia_l.tibia_upper_l.torque.Z	femur_med_tibia_l.femur_med_l.force.X	femur_med_tibia_l.femur_med_l.force.Y	femur_med_tibia_l.femur_med_l.force.Z	femur_med_tibia_l.femur_med_l.torque.X	femur_med_tibia_l.femur_med_l.torque.Y	femur_med_tibia_l.femur_med_l.torque.Z	femur_lat_tibia_l.tibia_upper_l.force.X	femur_lat_tibia_l.tibia_upper_l.force.Y	femur_lat_tibia_l.tibia_upper_l.force.Z	femur_lat_tibia_l.tibia_upper_l.torque.X	femur_lat_tibia_l.tibia_upper_l.torque.Y	femur_lat_tibia_l.tibia_upper_l.torque.Z	femur_lat_tibia_l.femur_lat_l.force.X	femur_lat_tibia_l.femur_lat_l.force.Y	femur_lat_tibia_l.femur_lat_l.force.Z	femur_lat_tibia_l.femur_lat_l.torque.X	femur_lat_tibia_l.femur_lat_l.torque.Y	femur_lat_tibia_l.femur_lat_l.torque.Z	femur_med_tibia_r.tibia_upper_r.force.X	femur_med_tibia_r.tibia_upper_r.force.Y	femur_med_tibia_r.tibia_upper_r.force.Z	femur_med_tibia_r.tibia_upper_r.torque.X	femur_med_tibia_r.tibia_upper_r.torque.Y	femur_med_tibia_r.tibia_upper_r.torque.Z	femur_med_tibia_r.femur_med_r.force.X	femur_med_tibia_r.femur_med_r.force.Y	femur_med_tibia_r.femur_med_r.force.Z	femur_med_tibia_r.femur_med_r.torque.X	femur_med_tibia_r.femur_med_r.torque.Y	femur_med_tibia_r.femur_med_r.torque.Z	femur_lat_tibia_r.tibia_upper_r.force.X	femur_lat_tibia_r.tibia_upper_r.force.Y	femur_lat_tibia_r.tibia_upper_r.force.Z	femur_lat_tibia_r.tibia_upper_r.torque.X	femur_lat_tibia_r.tibia_upper_r.torque.Y	femur_lat_tibia_r.tibia_upper_r.torque.Z	femur_lat_tibia_r.femur_lat_r.force.X	femur_lat_tibia_r.femur_lat_r.force.Y	femur_lat_tibia_r.femur_lat_r.force.Z	femur_lat_tibia_r.femur_lat_r.torque.X	femur_lat_tibia_r.femur_lat_r.torque.Y	femur_lat_tibia_r.femur_lat_r.torque.Z	aACL_R	pACL_R	aPCL_R	pPCL_R	aMCL_R	mMCL_R	pMCL_R	aLCL_R	mLCL_R	pLCL_R	aPCL_L	pPCL_L	aMCL_L	aLCL_L	ground_prescribedForce_-20_fx	ground_prescribedForce_-20_fy	ground_prescribedForce_-20_fz
      0.12460376	     14.23210378	     10.21793438	     11.01565547	      4.67990551	      5.38594493	      6.01181150	     13.76219358	      8.30714377	     13.61632605	     13.01738892	      2.79748637	     10.19237227	      7.25058216	      5.24836464	      4.47270249	      7.64275296	      6.38566536	      3.95578639	      2.90426908	      6.60442545	     10.05101308	      7.57520791	     31.01456168	     22.48337723	      6.46215915	      4.22952586	      8.72435788	     24.98601420	     18.91200886	     18.78400697	     23.19011514	      4.49031272	      2.14494245	     11.27103748	     14.50732577	      7.29140990	      8.20137282	     23.78813758	      8.73261379	     18.81017280	      1.40813883	      9.00013889	      1.91865778	     14.23210378	     10.21793438	     11.01565547	      4.67990551	      5.38594493	      6.01181150	     17.95636931	      7.66155024	     15.51350580	     12.86535693	      2.66784466	     10.19237227	      7.25058216	      5.24836464	      4.47270249	      7.64275296	      6.36435726	      3.95578639	      2.76332490	      6.60442545	     10.05101308	      7.57520791	     31.01456168	     22.48337723	      6.46215915	      4.22952586	      8.72435788	     21.39479370	     12.08774478	     14.00765979	     15.04654149	     31.11254555	     14.46711076	     66.42053460	     57.39197669	      6.58671372	      6.54309506	     16.64510774	      8.98406117	     22.47503639	      3.47376620	     11.27226678	      3.53280148	     44.06932519	     44.06932519	     16.62020218	     16.62020218	     33.70486547	     33.70486547	      2.76307435	     50.99597937	     -9.56042239	      5.21997485	     -0.02578839	      1.48581788	     -2.76307435	    -50.99597937	      9.56042239	     -1.74637766	      0.02558040	     -0.48301696	     -3.31599387	     20.97615968	     -3.40468921	      0.94473225	     -0.02138609	     -1.00501789	      3.31599387	    -20.97615968	      3.40468921	      0.28075727	      0.00368718	     -0.29758878	     26.18597171	     51.63806774	     -3.95765467	      0.29660443	      0.69559370	     10.98036131	    -26.18597171	    -51.63806774	      3.95765467	      1.46099104	     -0.79477770	     -0.64528195	     76.70572687	     67.94612020	      9.03828466	     -2.22380839	     -1.71500062	     31.74532995	    -76.70572687	    -67.94612020	     -9.03828466	     -0.91200468	      1.29663346	     -1.98733312	      0.00000000	      0.00000000	      0.00000000	      0.00000000	      0.00000000	      0.00000000	      0.00000000	      0.00000000	      0.00000000	      0.00000000	      0.00000000	      0.00000000	      0.00000000	      0.00000000	      0.00000000	      0.00000000	      0.00000000	      0.00000000	      0.00000000	      0.00000000	      0.00000000	      0.00000000	      0.00000000	      0.00000000	      0.00000000	      0.00000000	      0.00000000	      0.00000000	      0.00000000	      0.00000000	      0.00000000	      0.00000000	      0.00000000	      0.00000000	      0.00000000	      0.00000000	     -0.12155535	     -0.28929426	     -0.09427926	      0.01118522	     -0.00377823	     -0.00284042	      0.12155535	      0.28929426	      0.09427926	     -0.04587677	      0.00261984	      0.05112315	      0.00000000	      0.00000000	     -0.65559048	     -1.38523664	      0.00000000	      3.60428389	      7.64301819	      0.00000000	      0.00000000	      0.00000000	      0.00000000	      0.00000000	      0.00000001	      0.00000000	    103.36618800	    -37.62220000	      0.00000000
      0.12491675	     14.20411958	     10.19895362	     10.99496583	      4.67154570	      5.37675065	      6.00001207	     13.73139119	      8.28779414	     13.59496941	     12.99221998	      2.79170641	     10.17323668	      7.23774295	      5.23864166	      4.46423944	      7.62746930	      6.37365260	      3.94866903	      2.89814494	      6.59208164	     10.03219634	      7.56084169	     30.97925071	     22.44313314	      6.45037582	      4.22367457	      8.70608202	     24.94499363	     18.88229265	     18.76469436	     23.18191759	      4.48856470	      2.14214910	     11.26881327	     14.45419291	      7.26363094	      8.18116855	     23.74487802	      8.71866193	     18.77397933	      2.84696338	      9.01096395	      1.91755014	     14.20411958	     10.19895362	     10.99496583	      4.67154570	      5.37675065	      6.00001207	     17.91914712	      7.64656475	     15.48147262	     12.84186507	      2.66310028	     10.17323668	      7.23774295	      5.23864166	      4.46423944	      7.62746930	      6.35485625	      3.94866903	      2.75832804	      6.59208164	     10.03219634	      7.56084169	     30.97925071	     22.44313314	      6.45037582	      4.22367457	      8.70608202	     21.35074144	     12.06459070	     13.98048429	     15.01729650	     31.04755552	     14.43679741	     66.28095561	     57.32977856	      6.57134961	      6.52824965	     16.61117943	      8.96523260	     22.43480661	      3.46757087	     11.24876583	      3.52544421	     43.99043673	     43.99043673	     16.58830306	     16.58830306	     33.67565212	     33.67565212	      2.76307435	     50.99597937	     -9.56042239	      5.21997485	     -0.02578839	      1.48581788	     -2.76307435	    -50.99597937	      9.56042239	     -1.74637766	      0.02558040	     -0.48301696	     -3.31599387	     20.97615968	     -3.40468921	      0.94473225	     -0.02138609	     -1.00501789	      3.31599387	    -20.97615968	      3.40468921	      0.28075727	      0.00368718	     -0.29758878	     26.22888606	     51.50125330	     -3.94052000	      0.29330193	      0.69644875	     10.99722296	    -26.22888606	    -51.50125330	      3.94052000	      1.45712185	     -0.79593890	     -0.64635605	     76.72187848	     67.90177689	      8.98292339	     -2.20186936	     -1.71517472	     31.75193647	    -76.72187848	    -67.90177689	     -8.98292339	     -0.91297874	      1.29702036	     -1.98763706	      0.00000000	      0.00000000	      0.00000000	      0.00000000	      0.00000000	      0.00000000	      0.00000000	      0.00000000	      0.00000000	      0.00000000	      0.00000000	      0.00000000	      0.00000000	      0.00000000	      0.00000000	      0.00000000	      0.00000000	      0.00000000	      0.00000000	      0.00000000	      0.00000000	      0.00000000	      0.00000000	      0.00000000	      0.00000000	      0.00000000	      0.00000000	      0.00000000	      0.00000000	      0.00000000	      0.00000000	      0.00000000	      0.00000000	      0.00000000	      0.00000000	      0.00000000	     -0.10489457	     -0.24930228	     -0.08111373	      0.00963465	     -0.00325925	     -0.00245322	      0.10489457	      0.24930228	      0.08111373	     -0.03947993	      0.00226085	      0.04411707	      0.00000000	      0.00000000	     -0.69456450	     -1.47094815	      0.00000000	      3.57386764	      7.61874083	      0.00000000	      0.00000000	      0.00000000	      0.00000000	      0.00000000	      0.00000001	      0.00000000	    103.36618800	    -37.62220000	      0.00000000
      0.12623900	     14.08721425	     10.11966013	     10.90853588	      4.63661917	      5.33834101	      5.95071956	     13.60433630	      8.20813687	     13.50204257	     12.88049858	      2.76891498	     10.09329861	      7.18410980	      5.19802422	      4.42888710	      7.56361802	      6.32329115	      3.91893367	      2.87352174	      6.54051830	      9.95359339	      7.50082991	     30.83176977	     22.27503906	      6.40114804	      4.19923751	      8.62967923	     24.77060617	     18.75764673	     18.67715663	     23.13163251	      4.47638370	      2.12785801	     11.24601811	     14.22053535	      7.14285901	      8.09259760	     23.55920480	      8.66947376	     18.63176995	      4.83901007	      9.06924064	      1.91418557	     14.08721425	     10.11966013	     10.90853588	      4.63661917	      5.33834101	      5.95071956	     17.76356251	      7.58396324	     15.34760349	     12.74372316	      2.64327922	     10.09329861	      7.18410980	      5.19802422	      4.42888710	      7.56361802	      6.31516461	      3.91893367	      2.73745191	      6.54051830	      9.95359339	      7.50082991	     30.83176977	     22.27503906	      6.40114804	      4.19923751	      8.62967923	     21.16665457	     11.96787848	     13.86697326	     14.89514851	     30.77577951	     14.31003754	     65.69744985	     57.06993163	      6.50711884	      6.46620933	     16.46941522	      8.88654134	     22.26671001	      3.44169371	     11.15052890	      3.49469430	     43.66084664	     43.66084664	     16.45504701	     16.45504701	     33.55364799	     33.55364799	      2.76307435	     50.99597937	     -9.56042239	      5.21997485	     -0.02578839	      1.48581788	     -2.76307435	    -50.99597937	      9.56042239	     -1.74637766	      0.02558040	     -0.48301696	     -3.31599387	     20.97615968	     -3.40468921	      0.94473225	     -0.02138609	     -1.00501789	      3.31599387	    -20.97615968	      3.40468921	      0.28075727	      0.00368718	     -0.29758878	     26.39492144	     50.93158075	     -3.83278831	      0.26414726	      0.69978064	     11.06197188	    -26.39492144	    -50.93158075	      3.83278831	      1.44251642	     -0.80072256	     -0.65019881	     76.71008080	     67.85254555	      8.89624813	     -2.16801578	     -1.71404365	     31.74630003	    -76.71008080	    -67.85254555	     -8.89624813	     -0.91388424	      1.29622655	     -1.98513000	      0.00000000	      0.00000000	      0.00000000	      0.00000000	      0.00000000	      0.00000000	      0.00000000	      0.00000000	      0.00000000	      0.00000000	      0.00000000	      0.00000000	      0.00000000	      0.00000000	      0.00000000	      0.00000000	      0.00000000	      0.00000000	      0.00000000	      0.00000000	      0.00000000	      0.00000000	      0.00000000	      0.00000000	      0.00000000	      0.00000000	      0.00000000	      0.00000000	      0.00000000	      0.00000000	      0.00000000	      0.00000000	      0.00000000	      0.00000000	      0.00000000	      0.00000000	     -0.03645665	     -0.08519287	     -0.02753120	      0.00329035	     -0.00113072	     -0.00086321	      0.03645665	      0.08519287	      0.02753120	     -0.01341770	      0.00078739	      0.01533616	      0.00000000	      0.00000000	     -0.77373132	     -1.59358667	      0.00000000	      3.56247396	      7.63500013	      0.00000000	      0.00000000	      0.00000000	      0.00000000	      0.00000000	      0.00000001	      0.00000000	    103.36618800	    -37.62220000	      0.00000000
      0.12846352	     13.89524884	      9.98945335	     10.76661939	      4.57925530	      5.27526937	      5.86977881	     13.38987721	      8.07462467	     13.33590126	     12.67757816	      2.72988468	      9.96204142	      7.09603295	      5.13133035	      4.37084512	      7.45875972	      6.23963689	      3.87009792	      2.83168706	      6.45586036	      9.82453947	      7.40230023	     30.58971042	     21.99911621	      6.32030433	      4.15913510	      8.50402821	     24.46515752	     18.51981553	     18.48913234	     22.97706557	      4.44621483	      2.09977424	     11.19171963	     13.81902757	      6.93300609	      7.93848418	     23.25005607	      8.60057802	     18.41143089	      6.37931827	      9.20633927	      1.91293904	     13.89524884	      9.98945335	     10.76661939	      4.57925530	      5.27526937	      5.86977881	     17.50777629	      7.48117164	     15.12760956	     12.58255488	      2.61072532	      9.96204142	      7.09603295	      5.13133035	      4.37084512	      7.45875972	      6.24998668	      3.87009792	      2.70316653	      6.45586036	      9.82453947	      7.40230023	     30.58971042	     21.99911621	      6.32030433	      4.15913510	      8.50402821	     20.86417382	     11.80912421	     13.68063762	     14.69466035	     30.32852360	     14.10144859	     64.73785397	     56.64321160	      6.40147633	      6.36424795	     16.23653471	      8.75720522	     21.99055713	      3.39921640	     10.98900280	      3.44414884	     43.11952370	     43.11952370	     16.23624663	     16.23624663	     33.35343598	     33.35343598	      2.76307435	     50.99597937	     -9.56042239	      5.21997485	     -0.02578839	      1.48581788	     -2.76307435	    -50.99597937	      9.56042239	     -1.74637766	      0.02558040	     -0.48301696	     -3.31599387	     20.97615968	     -3.40468921	      0.94473225	     -0.02138609	     -1.00501789	      3.31599387	    -20.97615968	      3.40468921	      0.28075727	      0.00368718	     -0.29758878	     26.53284021	     50.30832900	     -3.42485413	      0.11105964	      0.70222033	     11.11066076	    -26.53284021	    -50.30832900	      3.42485413	      1.43684996	     -0.80635928	     -0.64849801	     76.23632208	     68.35574927	      8.95778989	     -2.18554241	     -1.70123788	     31.54353108	    -76.23632208	    -68.35574927	     -8.95778989	     -0.91745673	      1.28485071	     -1.95769550	      0.00000000	      0.00000000	      0.00000000	      0.00000000	      0.00000000	      0.00000000	      0.00000000	      0.00000000	      0.00000000	      0.00000000	      0.00000000	      0.00000000	      0.00000000	      0.00000000	      0.00000000	      0.00000000	      0.00000000	      0.00000000	      0.00000000	      0.00000000	      0.00000000	      0.00000000	      0.00000000	      0.00000000	      0.00000000	      0.00000000	      0.00000000	      0.00000000	      0.00000000	      0.00000000	      0.00000000	      0.00000000	      0.00000000	      0.00000000	      0.00000000	      0.00000000	      0.00000000	      0.00000000	      0.00000000	      0.00000000	      0.00000000	      0.00000000	      0.00000000	      0.00000000	      0.00000000	      0.00000000	      0.00000000	      0.00000000	      3.29651956	      0.00000000	     -0.83642255	     -1.68195178	      0.00000000	      3.26134015	      7.37378263	      0.00000000	      0.00000000	      0.00000000	      0.00000000	      0.00000000	      0.00000001	      0.00000000	    103.36618800	    -37.62220000	      0.00000000
